PathFileType	4	(X/Y/Z)	E:\Qualisys_Data\Carbon_Farble_Plate\Data\Amateur_Runner\S14\T2\S14T2V13_c3d.trc
DataRate	CameraRate	NumFrames	NumMarkers	Units	OrigDataRate	OrigDataStartFrame	OrigNumFrames
200.000000	200.000000	4	39	mm	200.000000	239	319
Frame#	Time	LSHO			RSHO			LICST			RICST			LASIS			LHEEL			RASIS			LTROC			RTROC			SACR			LTH1			LSK4			LTH2			LTH3			RHM5			LSK2			LTH4			RTH1			LTOE			RTH2			RTH3			RTH4			LLEP			RLEP			LSK1			LSK3			RSK1			LHM5			RSK2			LFT1			RSK3			RSK4			LLME			RLME			RTOE			RHEEL			RFT1			RFT2			LFT2			
		X1	Y1	Z1	X2	Y2	Z2	X3	Y3	Z3	X4	Y4	Z4	X5	Y5	Z5	X6	Y6	Z6	X7	Y7	Z7	X8	Y8	Z8	X9	Y9	Z9	X10	Y10	Z10	X11	Y11	Z11	X12	Y12	Z12	X13	Y13	Z13	X14	Y14	Z14	X15	Y15	Z15	X16	Y16	Z16	X17	Y17	Z17	X18	Y18	Z18	X19	Y19	Z19	X20	Y20	Z20	X21	Y21	Z21	X22	Y22	Z22	X23	Y23	Z23	X24	Y24	Z24	X25	Y25	Z25	X26	Y26	Z26	X27	Y27	Z27	X28	Y28	Z28	X29	Y29	Z29	X30	Y30	Z30	X31	Y31	Z31	X32	Y32	Z32	X33	Y33	Z33	X34	Y34	Z34	X35	Y35	Z35	X36	Y36	Z36	X37	Y37	Z37	X38	Y38	Z38	X39	Y39	Z39	

240	1.195	1378.265747070312	1435.882446289062	-547.072265625	1486.840942382812	1434.49853515625	-274.015625	1385.484497070312	979.7077026367188	-512.4407348632812	1434.851928710938	989.5093994140624	-243.4519805908203	1431.843505859375	930.6472778320312	-490.9722900390625	1521.573486328125	65.89051055908203	-381.6455383300781	1455.655517578125	944.0615234375	-261.460693359375	1308.1865234375	855.939697265625	-526.2102661132812	1302.672485351562	882.2951049804688	-190.2463226318359	1266.886352539062	984.0604248046876	-371.7538757324219	1445.320922851562	647.9916381835938	-536.4839477539062	1477.47314453125	276.2223815917969	-468.0693359375	1383.853637695312	624.0480346679688	-497.0521850585938	1498.846557617188	566.05224609375	-506.487548828125	850.3114624023438	202.1930694580078	-210.3585815429688	1461.21728515625	372.9880065917969	-486.04296875	1428.914794921875	538.156494140625	-478.6490173339844	1357.618774414062	640.0446166992188	-209.8888549804688	1761.495483398438	133.8383026123047	-457.7896423339844	1286.4501953125	664.8594970703125	-194.9372863769531	1324.672485351562	546.7528076171875	-232.2082977294922	1247.194091796875	573.2702026367188	-214.5256500244141	1487.94873046875	482.910400390625	-494.0286560058594	1237.89208984375	499.6974792480469	-218.942626953125	1541.697387695312	385.7763977050781	-495.5274353027344	1557.151000976562	286.2540283203125	-481.755859375	1144.707397460938	418.7498168945312	-217.2220001220703	1693.535034179688	86.41938781738281	-504.31494140625	1101.139526367188	492.6174621582031	-223.0776824951172	1544.373901367188	43.91873931884766	-362.5510559082031	1053.043701171875	371.5715026855469	-231.9554595947266	1019.105346679688	443.62109375	-237.0400390625	1558.162719726562	105.0081558227539	-453.7638244628906	883.5184936523438	335.2823791503906	-255.3377990722656	885.0978393554688	120.3278732299805	-255.5034637451172	852.2952270507812	371.2501220703125	-320.8603210449219	827.8203735351562	345.07861328125	-346.8809509277344	822.7643432617188	368.7057495117188	-296.5553283691406	1528.409057617188	35.12807846069336	-415.2885437011719
241	1.2	1394.397583007812	1430.92529296875	-548.3012084960938	1502.140502929688	1430.090698242188	-274.5941772460938	1400.423828125	975.4320068359376	-512.7748413085938	1450.119018554688	985.7172241210938	-243.6559143066406	1446.82080078125	927.1378173828124	-491.2688598632812	1528.721923828125	68.29676055908203	-381.6007690429688	1471.04345703125	940.0087890625	-261.627685546875	1323.159545898438	852.2130737304688	-526.079833984375	1318.742431640625	877.0099487304688	-190.1889495849609	1281.58544921875	979.0582275390624	-371.9955749511719	1462.12451171875	644.5582275390625	-535.4523315429688	1490.402099609375	272.9865112304688	-467.2678833007812	1400.67919921875	620.0459594726562	-496.0638427734375	1515.401000976562	562.68115234375	-505.6825561523438	865.3738403320312	205.8531799316406	-210.6066589355469	1475.476318359375	369.7115783691406	-485.85205078125	1445.1767578125	534.5852661132812	-478.6033630371094	1376.420043945312	635.364013671875	-209.5954284667969	1771.040893554688	122.392333984375	-453.9474487304688	1304.863891601562	659.5667114257812	-194.528076171875	1345.112426757812	541.3278198242188	-231.6551055908203	1267.04638671875	567.2904663085938	-213.5632629394531	1503.69921875	478.8023986816406	-493.822265625	1258.567138671875	493.7301635742188	-217.4678344726562	1556.208862304688	381.0458984375	-494.8240661621094	1570.070190429688	281.2358093261719	-480.2612609863281	1164.120361328125	414.5065307617188	-216.5934753417969	1701.616943359375	77.7505874633789	-500.5386352539062	1122.32958984375	489.3367919921875	-222.3473968505859	1548.400268554688	42.85580825805664	-362.0431823730469	1071.570068359375	369.5792541503906	-231.6273345947266	1039.077392578125	442.349853515625	-237.001953125	1567.782470703125	100.7148513793945	-452.2560729980469	901.5426025390624	338.3332824707031	-255.3869323730469	898.43701171875	123.4193496704102	-256.3924255371094	870.71484375	374.7507629394531	-321.230712890625	845.7376098632812	349.4004821777344	-347.6167602539062	841.0460815429688	372.547607421875	-296.8532104492188	1532.216796875	36.97756195068359	-415.6145324707031
242	1.205	1410.752807617188	1425.851806640625	-549.6980590820312	1516.806884765625	1425.5361328125	-275.2417907714844	1415.320678710938	971.7628173828124	-512.979736328125	1465.178588867188	981.470458984375	-243.3826293945312	1461.610717773438	923.76953125	-491.7996826171875	1533.74609375	68.35575866699219	-381.2683410644531	1486.478149414062	935.9093017578124	-261.985595703125	1338.091064453125	848.1002807617188	-525.8462524414062	1334.7294921875	871.704345703125	-190.0376586914062	1295.865356445312	973.9678344726562	-372.2220153808594	1480.6220703125	640.4917602539062	-532.4448852539062	1502.682739257812	269.7725219726562	-466.866455078125	1417.234985351562	616.2199096679688	-496.1064147949219	1531.6474609375	558.8851318359375	-505.1568908691406	880.6266479492188	208.9479827880859	-211.4331512451172	1490.206909179688	367.1000366210938	-485.9275817871094	1461.730346679688	530.751953125	-478.6411743164062	1395.530883789062	630.4646606445312	-209.5185546875	1779.062255859375	108.4080963134766	-450.7466125488281	1323.801025390625	653.7156372070312	-194.4608917236328	1365.327514648438	536.0486450195312	-230.9481658935547	1286.817504882812	561.155029296875	-212.7590179443359	1519.69482421875	475.0103759765625	-493.6519775390625	1279.903442382812	487.5845031738281	-216.5584716796875	1570.70654296875	376.8831787109375	-494.4069213867188	1583.09716796875	276.2951965332031	-478.8775329589844	1184.21337890625	410.1943054199219	-215.9864349365234	1708.267456054688	67.19327545166016	-497.7783508300781	1144.13623046875	486.4333801269531	-221.3753662109375	1551.69677734375	41.0510368347168	-361.8147888183594	1090.35546875	367.388671875	-231.6852264404297	1059.7060546875	441.2255554199219	-236.5747528076172	1575.367431640625	96.3586883544922	-451.316650390625	918.9911499023438	339.3364562988281	-255.9218292236328	912.7330322265624	126.2309799194336	-257.1419982910156	890.079833984375	378.2449035644531	-321.9217224121094	864.634521484375	353.1107788085938	-347.8992614746094	860.4867553710938	376.491455078125	-297.6324768066406	1535.729614257812	37.56432723999023	-415.3668212890625
243	1.21	1427.289916992188	1420.106811523438	-550.9312744140625	1532.117065429688	1420.683837890625	-276.035888671875	1429.969482421875	967.3775024414062	-512.9828491210938	1480.425659179688	976.9109497070312	-243.3270721435547	1476.69189453125	920.4326782226562	-492.4113464355469	1537.204223632812	67.39803314208984	-381.0707397460938	1501.720947265625	931.7156982421876	-262.1065673828125	1352.897583007812	843.6737670898438	-525.4705810546875	1350.756591796875	865.9413452148438	-189.6940155029297	1310.562133789062	968.330078125	-372.1075439453125	1497.518188476562	637.3004150390625	-531.0028686523438	1514.831665039062	266.8418884277344	-465.6777648925781	1433.20166015625	612.1884155273438	-496.2791137695312	1548.029052734375	554.97607421875	-504.42919921875	896.840087890625	211.8470001220703	-212.4819183349609	1504.74365234375	364.3380432128906	-485.9034118652344	1478.067993164062	526.6652221679688	-478.8506164550781	1414.813720703125	625.534423828125	-209.3383026123047	1786.227783203125	93.8813018798828	-447.7493591308594	1342.638305664062	647.6287231445312	-193.9605712890625	1386.08544921875	530.8162231445312	-229.9440612792969	1307.02099609375	554.4564208984375	-212.2859497070312	1536.444458007812	471.716064453125	-493.8165588378906	1301.32763671875	481.280517578125	-215.7009735107422	1585.325805664062	372.8391418457031	-493.8667297363281	1595.155639648438	271.6262512207031	-477.2483520507812	1204.385620117188	405.7701721191406	-215.9609222412109	1713.930908203125	56.93875885009766	-495.9705810546875	1165.783447265625	482.6410522460938	-220.2842864990234	1553.449462890625	39.75334167480469	-362.1874389648438	1109.635864257812	365.1396484375	-231.4971466064453	1080.748779296875	439.2490844726562	-235.6053619384766	1580.808715820312	93.2799072265625	-450.0466003417969	937.6283569335938	341.9137573242188	-256.1412048339844	927.5180053710938	128.6030578613281	-257.9387512207031	910.1802368164062	380.5875854492188	-323.0018005371094	884.0623779296875	357.0089721679688	-348.7031860351562	879.8201904296875	379.9946899414062	-297.5559997558594	1537.702392578125	37.21439361572266	-415.2665405273438
